<svg version="1.2" xmlns="http://www.w3.org/2000/svg" viewBox="0 0 529 529" width="529" height="529">
	<title>v1048-011-ai</title>
	<style>
		tspan { white-space:pre } 
		.s0 { fill: #000000 } 
	</style>
	<g id="Background">
	</g>
	<g id="Graphic element">
		<g id="&lt;Group&gt;">
			<g id="&lt;Group&gt;">
				<g id="&lt;Group&gt;">
					<g id="&lt;Group&gt;">
						<path id="&lt;Path&gt;" class="s0" d="m137.2 263.2v-229.9h21.2v208.7c0 11.7-9.5 21.2-21.2 21.2z"/>
					</g>
					<g id="&lt;Group&gt;">
						<path id="&lt;Path&gt;" class="s0" d="m76 245.6v-194.8h21.2v173.7c0 11.7-9.5 21.1-21.2 21.1z"/>
					</g>
					<g id="&lt;Group&gt;">
						<path id="&lt;Path&gt;" class="s0" d="m14.9 179.3v-62.1h21.1v40.9c0 11.7-9.5 21.2-21.1 21.2z"/>
					</g>
				</g>
				<g id="&lt;Group&gt;">
					<path id="&lt;Path&gt;" class="s0" d="m440.7 158.8h-292.9v-21.2h292.9z"/>
				</g>
			</g>
			<g id="&lt;Group&gt;">
				<g id="&lt;Group&gt;">
					<g id="&lt;Group&gt;">
						<path id="&lt;Path&gt;" class="s0" d="m368.9 494.8v-229.9h21.2v208.7c0 11.7-9.5 21.2-21.2 21.2z"/>
					</g>
					<g id="&lt;Group&gt;">
						<path id="&lt;Path&gt;" class="s0" d="m430.1 477.3v-194.8h21.2v173.6c0 11.7-9.5 21.2-21.2 21.2z"/>
					</g>
					<g id="&lt;Group&gt;">
						<path id="&lt;Path&gt;" class="s0" d="m491.3 410.9v-62.1h21.1v41c0 11.7-9.4 21.1-21.1 21.1z"/>
					</g>
				</g>
				<g id="&lt;Group&gt;">
					<path id="&lt;Path&gt;" class="s0" d="m379.5 390.4h-292.9v-21.1h292.9z"/>
				</g>
			</g>
		</g>
	</g>
</svg>